:version 1.10
:name ASF
:units
  mass 1
  length 1
  angle deg
:documentation
  ASF file generated by Kaydara
:root
  axis xyz
  order  tx ty tz rx ry rz
  position 0 0 0
  orientation 0 0 0
:bonedata
  begin
    id 1
    name LeftUpLegDummy
    direction 1 -2.30186e-007 -8.31532e-007
    length 2.93387
    axis 0 0 0 xyz
  end
  begin
    id 2
    name LeftUpLeg
    direction -1.82929e-007 -1 -1.48925e-009
    length 17.3336
    axis -3.48766 0.00143442 -0.000521554 xyz
    dof rx ry rz
  end
  begin
    id 3
    name LeftLeg
    direction -1.82929e-007 -1 -5.23717e-011
    length 14.9995
    axis 3.68178 -0.00654042 -0.000282425 xyz
    dof rx ry rz
  end
  begin
    id 4
    name LeftFoot
    direction 8.31532e-007 -4.54534e-011 1
    length 6.74421
    axis 1.87234e-006 4.66016e-005 -5.96866e-006 xyz
    dof rx ry rz
  end
  begin
    id 5
    name LeftToes
    direction 0.00818058 -0.00485161 0.999955
    length 3.85048
    axis 1.06247e-005 4.65869e-005 -5.96999e-006 xyz
    dof rx ry rz
  end
  begin
    id 6
    name SpineDummy
    direction -5.8607e-008 0.943407 -0.331637
    length 5.93572
    axis 0 0 0 xyz
  end
  begin
    id 7
    name Spine
    direction -1.04988e-007 0.999988 0.00495137
    length 10.1015
    axis -0.001389 0.000121417 6.61666e-006 xyz
    dof rx ry rz
  end
  begin
    id 8
    name Spine1
    direction 0 0 0
    length 0
    axis -0.001389 0.00012144 6.56766e-006 xyz
    dof rx ry rz
  end
  begin
    id 9
    name RightShoulderDummy
    direction -0.98348 0.17941 -0.0240696
    length 3.59882
    axis -0.001389 0.00012144 6.56766e-006 xyz
  end
  begin
    id 10
    name RightShoulder
    direction -0.978693 0.204882 0.0135597
    length 2.70001
    axis 0.215806 0.000203631 -0.00679732 xyz
    dof rx ry rz
  end
  begin
    id 11
    name RightArm
    direction -1 3.85509e-006 8.31394e-007
    length 10.2459
    axis -23.2009 -0.134239 -0.964098 xyz
    dof rx ry rz
  end
  begin
    id 12
    name RightForeArm
    direction -1 3.85569e-006 8.3129e-007
    length 8.16799
    axis -9.92322 0.0658061 0.17887 xyz
    dof rx ry rz
  end
  begin
    id 13
    name RightHand
    direction -0.992843 -0.0414604 0.112003
    length 5.28593
    axis -0.00960638 0.00330669 -0.185225 xyz
    dof rx ry rz
  end
  begin
    id 14
    name LeftShoulder1Dummy
    direction 0.983523 0.179172 -0.0240748
    length 3.59866
    axis -0.001389 0.00012144 6.56766e-006 xyz
  end
  begin
    id 15
    name LeftShoulder1
    direction 0.978627 0.205195 0.0135605
    length 2.70019
    axis -0.001389 0.00012144 6.57583e-006 xyz
    dof rx ry rz
  end
  begin
    id 16
    name LeftArm
    direction 1 3.51895e-006 -8.60188e-007
    length 10.2459
    axis -23.1894 0.134785 0.967513 xyz
    dof rx ry rz
  end
  begin
    id 17
    name LeftForeArm
    direction 1 3.51921e-006 -7.32029e-007
    length 8.16799
    axis -9.91835 -0.0656957 -0.177789 xyz
    dof rx ry rz
  end
  begin
    id 18
    name LeftHand
    direction 0.992938 -0.0411636 0.11126
    length 5.32135
    axis -0.00960237 -0.00340661 0.185177 xyz
    dof rx ry rz
  end
  begin
    id 19
    name HEadDummy
    direction 1.01974e-006 0.999861 -0.016675
    length 2.99946
    axis -0.001389 0.00012144 6.56766e-006 xyz
  end
  begin
    id 20
    name HEad
    direction -0.0222689 0.980941 0.193023
    length 5.12695
    axis -0.001389 0.00012144 6.56766e-006 xyz
    dof rx ry rz
  end
  begin
    id 21
    name RightUpLegDummy
    direction -1 2.30186e-007 8.31532e-007
    length 2.93387
    axis 0 0 0 xyz
  end
  begin
    id 22
    name RightUpLeg
    direction -1.82966e-007 -1 1.56832e-007
    length 17.3336
    axis -3.4909 -0.000906625 0.00028951 xyz
    dof rx ry rz
  end
  begin
    id 23
    name RightLeg
    direction -1.82786e-007 -1 -1.80317e-007
    length 14.9995
    axis 3.68513 0.0193739 -0.131021 xyz
    dof rx ry rz
  end
  begin
    id 24
    name RightFoot
    direction 8.31721e-007 -4.63324e-011 1
    length 6.74421
    axis 4.81691e-005 -0.120479 -0.188785 xyz
    dof rx ry rz
  end
  begin
    id 25
    name RightToes
    direction 0.00124746 -0.014064 0.9999
    length 3.85082
    axis 0.000481921 0.542163 -0.142575 xyz
    dof rx ry rz
  end
:hierarchy
  begin
    root LeftUpLegDummy SpineDummy RightUpLegDummy
    LeftUpLegDummy LeftUpLeg
    LeftUpLeg LeftLeg
    LeftLeg LeftFoot
    LeftFoot LeftToes
    SpineDummy Spine
    Spine Spine1
    Spine1 RightShoulderDummy LeftShoulder1Dummy HEadDummy
    RightShoulderDummy RightShoulder
    RightShoulder RightArm
    RightArm RightForeArm
    RightForeArm RightHand
    LeftShoulder1Dummy LeftShoulder1
    LeftShoulder1 LeftArm
    LeftArm LeftForeArm
    LeftForeArm LeftHand
    HEadDummy HEad
    RightUpLegDummy RightUpLeg
    RightUpLeg RightLeg
    RightLeg RightFoot
    RightFoot RightToes
  end

:SAMPLES-PER-SECOND 30
:FULLY-SPECIFIED
:DEGREES
50
root  5.2181 34.1228 -1.56237 3.60442 30.983 -1.20053
LeftUpLeg  -10.8685 8.82325 0.248534
LeftLeg  15.5 7.99951 1.66614
LeftFoot  -2.28841 -0.00858013 -0.241088
LeftToes  -10.9626 2.48695e-006 -1.03773e-007
Spine  5.42022 2.6164 -4.53416
Spine1  9.76129 5.91533 -9.04992
RightShoulder  0.0916786 1.38446 -0.499313
RightArm  4.09517 12.512 86.6814
RightForeArm  147.392 55.9712 164.476
RightHand  0.369959 -4.02684 -10.1078
LeftShoulder1  0.124133 -2.59898 -9.69087
LeftArm  -21.832 2.80158 -58.2136
LeftForeArm  38.9101 -11.2977 -2.00775
LeftHand  0.177528 3.62011 5.23317
HEad  7.89807 -10.8146 0.227633
RightUpLeg  -23.7086 -16.5311 -0.725718
RightLeg  19.9543 4.85836 1.41509
RightFoot  9.18141 -0.0483724 0.979903
RightToes  -38.3574 -0.205496 -0.308279
51
root  5.21398 34.1468 -1.19907 3.584 32.211 -1.5696
LeftUpLeg  -10.6131 8.14254 0.945005
LeftLeg  15.4619 7.49452 1.55635
LeftFoot  -2.41985 -0.00771739 -0.244946
LeftToes  -11.6101 2.48695e-006 -1.03773e-007
Spine  5.29009 2.38837 -4.31542
Spine1  9.63411 5.43357 -8.67845
RightShoulder  0.0828497 1.45995 -0.15318
RightArm  4.22531 9.22817 84.6287
RightForeArm  150.685 58.4266 162.916
RightHand  0.218577 -2.91034 -8.19983
LeftShoulder1  0.111957 -2.48854 -9.87781
LeftArm  -21.8309 5.13268 -57.8003
LeftForeArm  40.3853 -10.2193 -1.80987
LeftHand  0.195849 3.96115 5.27963
HEad  7.59185 -10.6079 0.322254
RightUpLeg  -22.72 -14.4547 0.73204
RightLeg  18.0296 6.88056 1.75535
RightFoot  7.97376 -0.0541046 1.13058
RightToes  -39.8305 -0.21713 -0.314163
52
root  5.23048 34.1669 -0.805744 3.66383 33.6924 -1.95157
LeftUpLeg  -10.4681 7.39419 1.64519
LeftLeg  15.4289 6.81042 1.41081
LeftFoot  -2.62754 -0.00602868 -0.251661
LeftToes  -12.2667 2.48695e-006 -1.03773e-007
Spine  5.02851 2.07839 -4.05292
Spine1  9.29413 4.73618 -8.15585
RightShoulder  0.0694897 1.49557 0.131117
RightArm  4.34351 4.81119 82.4937
RightForeArm  152.042 62.9912 159.307
RightHand  0.140323 -2.31715 -6.54151
LeftShoulder1  0.100914 -2.40696 -10.1991
LeftArm  -21.6395 7.77058 -57.2528
LeftForeArm  41.0403 -9.62573 -1.70171
LeftHand  0.195083 4.075 5.10076
HEad  7.32767 -10.4958 0.273155
RightUpLeg  -21.0713 -9.07523 1.31272
RightLeg  14.6805 7.38964 1.4333
RightFoot  7.20283 -0.0425581 1.05361
RightToes  -39.2538 -0.21255 -0.310868
53
root  5.28389 34.18 -0.387914 3.91354 35.4561 -2.10779
LeftUpLeg  -10.2751 6.56054 2.14729
LeftLeg  15.2053 5.93233 1.20538
LeftFoot  -2.75828 -0.00513837 -0.235342
LeftToes  -13.1035 2.48695e-006 -1.03773e-007
Spine  4.73557 1.70605 -3.87527
Spine1  8.8986 3.89692 -7.76007
RightShoulder  0.0534426 1.61684 0.753728
RightArm  4.03661 -0.0757811 80.5397
RightForeArm  147.876 69.7831 150.83
RightHand  0.119932 -2.32361 -5.52292
LeftShoulder1  0.0879004 -2.03027 -10.4998
LeftArm  -21.1265 10.0061 -56.6617
LeftForeArm  40.8587 -9.28975 -1.64132
LeftHand  0.198267 4.10195 5.15343
HEad  6.89573 -10.535 0.26422
RightUpLeg  -20.0378 -5.36832 1.73412
RightLeg  12.9701 10.3533 1.68619
RightFoot  6.87755 -0.0582117 1.34613
RightToes  -35.4238 -0.182997 -0.28784
54
root  5.37001 34.1699 0.0551636 4.31571 37.4266 -1.97343
LeftUpLeg  -10.0956 6.04137 2.43
LeftLeg  15.0662 4.57258 0.91789
LeftFoot  -2.98537 -0.00507749 -0.194861
LeftToes  -14.014 2.48695e-006 -1.03773e-007
Spine  4.38938 1.35436 -3.70813
Spine1  8.38128 3.09763 -7.36309
RightShoulder  0.036742 1.73809 1.42619
RightArm  2.86522 -4.8386 79.2812
RightForeArm  125.084 77.7864 124.329
RightHand  0.128928 -2.63233 -5.22401
LeftShoulder1  0.0784079 -1.74107 -10.9224
LeftArm  -20.9278 12.0752 -56.0632
LeftForeArm  40.626 -9.21179 -1.62756
LeftHand  0.200822 4.11591 5.11156
HEad  6.56905 -10.5951 -0.00858563
RightUpLeg  -19.2932 -3.30344 1.79661
RightLeg  12.8902 14.8906 2.39028
RightFoot  6.05818 -0.0694048 1.68888
RightToes  -31.3414 -0.153267 -0.26118
55
root  5.47833 34.1579 0.507076 4.78346 39.3721 -1.69178
LeftUpLeg  -9.86609 5.70427 2.616
LeftLeg  14.9154 3.0944 0.612538
LeftFoot  -3.15277 -0.00357958 -0.13008
LeftToes  -15.1317 2.48695e-006 -1.03773e-007
Spine  4.04209 1.11511 -3.51023
Spine1  7.82728 2.53047 -6.89884
RightShoulder  0.0217917 1.95741 2.2226
RightArm  -0.005822 -8.72081 78.9686
RightForeArm  56.7897 77.4291 52.9438
RightHand  0.154535 -2.93451 -5.64502
LeftShoulder1  0.0704942 -1.42407 -11.456
LeftArm  -21.1881 13.5198 -55.6719
LeftForeArm  40.6886 -9.09787 -1.60697
LeftHand  0.203239 4.18083 5.04292
HEad  6.40722 -10.7148 -0.550464
RightUpLeg  -18.8271 -3.49072 1.70645
RightLeg  13.1604 16.3459 2.69582
RightFoot  5.77256 -0.0699566 1.7648
RightToes  -30.7579 -0.149175 -0.257199
56
root  5.61089 34.1739 0.962418 4.85408 41.4632 -1.66688
LeftUpLeg  -9.42824 4.97723 3.0122
LeftLeg  14.8017 1.91921 0.375426
LeftFoot  -3.24371 -0.00202149 -0.0714038
LeftToes  -15.8792 2.48695e-006 -1.03773e-007
Spine  3.80324 0.965956 -3.14247
Spine1  7.44881 2.15683 -6.11458
RightShoulder  0.010652 2.38039 2.94779
RightArm  -6.8599 -10.8885 80.0125
RightForeArm  26.6675 61.7436 19.2459
RightHand  0.173005 -3.25426 -5.70314
LeftShoulder1  0.0628479 -1.09971 -11.9296
LeftArm  -22.1689 14.1108 -55.9097
LeftForeArm  41.1317 -8.71893 -1.53832
LeftHand  0.209617 4.15331 5.17241
HEad  6.90062 -10.9468 -1.26925
RightUpLeg  -18.79 -8.75677 2.17054
RightLeg  14.6186 17.6532 3.35989
RightFoot  5.28166 -0.063447 1.75283
RightToes  -39.8185 -0.217035 -0.314095
57
root  5.75 34.194 1.43427 4.67361 43.6639 -1.6687
LeftUpLeg  -8.85577 3.84495 3.47123
LeftLeg  14.8711 1.05662 0.207266
LeftFoot  -3.3613 -0.000833336 -0.0284105
LeftToes  -16.5999 2.48695e-006 -1.03773e-007
Spine  3.60292 0.927507 -2.69577
Spine1  7.09884 2.02368 -5.2004
RightShoulder  0.00493098 3.22828 4.0154
RightArm  -19.1333 -11.1406 80.8987
RightForeArm  22.2318 39.6466 8.40796
RightHand  0.224473 -3.88814 -6.22533
LeftShoulder1  0.056739 -0.921903 -11.8378
LeftArm  -23.7882 14.4955 -57.1642
LeftForeArm  41.6652 -8.47045 -1.49308
LeftHand  0.215762 4.13009 5.37259
HEad  7.60044 -11.3097 -1.95468
RightUpLeg  -18.8426 -15.0869 2.71853
RightLeg  17.3162 22.0865 5.22042
RightFoot  3.17191 -0.0272873 1.36278
RightToes  -43.2298 -0.244785 -0.33263
58
root  5.87893 34.2066 1.91483 4.02721 46.0333 -2.2297
LeftUpLeg  -8.75092 2.66188 4.35895
LeftLeg  15.94 0.111971 0.0224659
LeftFoot  -3.92753 0.000667509 0.0194589
LeftToes  -17.2655 2.48695e-006 -1.03773e-007
Spine  3.36788 0.966934 -2.05213
Spine1  6.65187 2.04387 -3.91404
RightShoulder  0.00548984 5.91037 5.19702
RightArm  -40.3155 -11.0937 78.8022
RightForeArm  28.2467 16.1405 2.92045
RightHand  0.604412 -6.61101 -10.0561
LeftShoulder1  0.0530479 -1.0069 -11.098
LeftArm  -25.3106 15.0565 -59.4733
LeftForeArm  41.0719 -8.73834 -1.54188
LeftHand  0.215037 4.24988 5.41177
HEad  8.42095 -11.908 -2.39571
RightUpLeg  -17.8629 -16.6633 3.13323
RightLeg  17.8752 21.7075 5.35296
RightFoot  1.56934 -0.00413365 0.679058
RightToes  -43.0458 -0.24326 -0.331673
59
root  6.0085 34.1796 2.39236 2.78511 48.7214 -3.39806
LeftUpLeg  -9.29006 1.09059 5.62963
LeftLeg  18.4071 -0.771391 -0.204893
LeftFoot  -5.11832 0.00359656 0.0804589
LeftToes  -18.0838 2.48695e-006 -1.03773e-007
Spine  3.29659 0.968824 -1.24148
Spine1  6.52357 1.9585 -2.3016
RightShoulder  0.0310557 9.34014 6.52022
RightArm  -53.8894 -15.7147 73.1859
RightForeArm  29.4223 3.11263 0.554746
RightHand  2.02309 -12.6849 -17.6735
LeftShoulder1  0.0459558 -0.961404 -10.0268
LeftArm  -25.3262 15.1348 -62.383
LeftForeArm  39.2934 -9.65048 -1.70819
LeftHand  0.19915 4.30353 4.91868
HEad  8.76754 -12.6609 -2.57691
RightUpLeg  -15.7706 -15.2781 3.63061
RightLeg  16.1413 18.3764 3.99106
RightFoot  0.367799 0.000748023 0.144217
RightToes  -41.8268 -0.233238 -0.326606
60
root  6.15179 34.1391 2.78868 0.690854 51.5199 -5.42683
LeftUpLeg  -10.4693 -1.02574 7.18414
LeftLeg  22.1094 -1.18923 -0.398841
LeftFoot  -6.65268 0.00804003 0.138324
LeftToes  -18.2209 2.48695e-006 -1.03773e-007
Spine  3.46018 0.877495 -0.299646
Spine1  6.89 1.65904 -0.394037
RightShoulder  0.0371551 10.6516 8.11264
RightArm  -55.6417 -22.471 68.5869
RightForeArm  28.4505 -0.0935371 -0.00651835
RightHand  2.86501 -17.5088 -18.0712
LeftShoulder1  0.0311749 -0.622241 -9.25444
LeftArm  -23.6073 14.4097 -65.1748
LeftForeArm  36.4112 -11.2891 -2.00872
LeftHand  0.158264 4.3271 3.81128
HEad  8.27562 -13.2738 -2.27155
RightUpLeg  -13.7112 -14.5899 4.59448
RightLeg  14.5002 15.5632 2.93989
RightFoot  -0.551847 -0.00256379 -0.155013
RightToes  -41.1394 -0.227649 -0.321468
61
root  6.3136 34.0639 3.13427 -1.87583 54.3671 -8.15255
LeftUpLeg  -12.6223 -2.79712 8.77315
LeftLeg  27.1662 -0.956007 -0.41866
LeftFoot  -7.98909 0.0084828 0.121467
LeftToes  -18.3297 2.48695e-006 -1.03773e-007
Spine  3.51868 0.539415 0.675602
Spine1  7.04543 0.881796 1.5386
RightShoulder  0.0388232 9.99354 9.71112
RightArm  -55.3184 -28.5114 65.08
RightForeArm  34.5915 -0.112582 -0.0139367
RightHand  2.01162 -18.2682 -12.089
LeftShoulder1  0.0106361 -0.0106412 -8.91686
LeftArm  -21.1369 13.9407 -67.5174
LeftForeArm  34.0052 -13.379 -2.39571
LeftHand  0.141128 4.29755 3.38457
HEad  7.73404 -13.4766 -1.65109
RightUpLeg  -12.7258 -17.191 5.99924
RightLeg  14.7486 15.7654 3.04691
RightFoot  -2.23434 -0.0201705 -0.656975
RightToes  -40.9143 -0.225828 -0.320229
62
root  6.4926 33.9872 3.47665 -3.50971 56.9622 -9.6662
LeftUpLeg  -15.4271 -2.86165 9.21878
LeftLeg  33.4157 -0.137767 -0.0829188
LeftFoot  -7.71569 -0.00104776 -0.0155465
LeftToes  -20.7485 2.48695e-006 -1.03773e-007
Spine  3.59743 0.0150283 1.25605
Spine1  7.20783 -0.253457 2.72207
RightShoulder  0.0332205 8.34077 10.6218
RightArm  -52.9452 -32.8961 62.8641
RightForeArm  40.4267 1.16322 0.203459
RightHand  0.869843 -14.0974 -6.65314
LeftShoulder1  0.00585897 0.297112 -9.09856
LeftArm  -19.4561 14.1455 -69.0929
LeftForeArm  32.4699 -17.1748 -3.11508
LeftHand  0.132717 3.95482 3.46649
HEad  7.75853 -13.4095 -0.956226
RightUpLeg  -12.1296 -19.0285 6.55597
RightLeg  15.808 15.7299 3.33839
RightFoot  -4.33745 -0.0621674 -1.26417
RightToes  -39.5618 -0.214992 -0.312634
